<?xml version="1.0" standalone="no"?>
<!DOCTYPE svg PUBLIC "-//W3C//DTD SVG 1.1//EN" "http://www.w3.org/Graphics/SVG/1.1/DTD/svg11.dtd" >
<svg xmlns="http://www.w3.org/2000/svg">
<metadata></metadata>
<defs>
<font id="avignonregular" horiz-adv-x="1030" >
<font-face units-per-em="2048" ascent="1638" descent="-410" />
<missing-glyph horiz-adv-x="514" />
<glyph horiz-adv-x="2048" />
<glyph horiz-adv-x="2048" />
<glyph unicode="&#xd;" horiz-adv-x="514" />
<glyph unicode=" "  horiz-adv-x="514" />
<glyph unicode="&#x09;" horiz-adv-x="514" />
<glyph unicode="&#xa0;" horiz-adv-x="514" />
<glyph unicode="!" horiz-adv-x="460" d="M162 0v233h137v-233h-137zM162 358v1014h137v-1014h-137z" />
<glyph unicode="&#x22;" horiz-adv-x="489" d="M72 1372h127l-15 -399h-98zM291 1372h127l-15 -399h-98z" />
<glyph unicode="#" d="M68 477l12 94h207l32 228h-206l14 96h205l49 350h96l-49 -350h227l50 350h96l-49 -350h213l-15 -96h-213l-32 -228h213l-13 -94h-213l-49 -350h-96l49 350h-227l-50 -350h-96l51 350h-206zM383 571h225l33 228h-225z" />
<glyph unicode="$" d="M96 395q0 16 2 27h125q8 -96 49 -152q78 -104 207 -104q106 0 178 71.5t72 176.5q0 111 -80 180q-57 49 -180 80q-182 45 -255 134t-73 216q0 125 74 213t199 113v155h137v-151q135 -23 215 -115t88 -229h-129q-2 100 -66.5 162.5t-160.5 62.5t-157.5 -62.5t-61.5 -162.5 q0 -82 50 -132.5t185 -84.5q170 -45 248 -119q104 -100 104 -260q0 -141 -90 -243.5t-225 -115.5v-184h-137v182q-137 27 -227.5 123t-90.5 219z" />
<glyph unicode="%" horiz-adv-x="1773" d="M78 1051q0 139 103.5 242.5t244.5 103.5t244.5 -103.5t103.5 -246.5t-103.5 -247t-244.5 -104q-145 0 -246.5 103.5t-101.5 251.5zM186 1049q0 -106 70 -179t170 -73q102 0 171 73.5t69 180.5q0 100 -71 172.5t-169 72.5q-96 0 -168 -73.5t-72 -173.5zM524 0l617 1372 h106l-616 -1372h-107zM997 330q0 139 105 242.5t244 103.5q141 0 244.5 -103.5t103.5 -246.5t-103.5 -247t-244.5 -104q-145 0 -247 103.5t-102 251.5zM1106 328q0 -106 69.5 -179t170.5 -73q102 0 170.5 73.5t68.5 180.5q0 100 -70.5 172.5t-168.5 72.5q-96 0 -168 -73.5 t-72 -173.5z" />
<glyph unicode="&#x26;" horiz-adv-x="1382" d="M78 397q0 264 317 406q-31 33 -82 90q-70 90 -69 199q0 125 96 215t231 90t232.5 -95.5t97.5 -226.5q0 -217 -268 -313l260 -256l199 387h155l-254 -483l346 -340l-98 -95l-313 308q-158 -307 -418 -308q-178 0 -305 124t-127 298zM215 387q0 -115 85 -200t200 -85 q141 0 241 138q43 59 84 141l-331 324q-8 -4 -19 -13q-27 -14 -84 -41q-80 -39 -128 -110.5t-48 -153.5zM381 1092q0 -86 129 -209q6 -7 22 -21l13 4q102 35 160.5 94.5t58.5 126.5q0 72 -58.5 127.5t-134.5 55.5q-78 0 -134 -52.5t-56 -125.5z" />
<glyph unicode="'" horiz-adv-x="270" d="M72 1372h127l-15 -399h-98z" />
<glyph unicode="(" horiz-adv-x="710" d="M78 512q0 414 299 725q125 131 272 176v-131q-170 -100 -274 -262q-160 -246 -160 -508q0 -319 203 -580q84 -109 231 -198v-131q-203 70 -373 301q-199 270 -198 608z" />
<glyph unicode=")" horiz-adv-x="710" d="M61 -266q170 100 275 262q160 248 160 508q0 322 -203 579q-88 111 -232 201v129q201 -66 373 -301q199 -270 199 -608q0 -412 -299 -725q-126 -131 -273 -176v131z" />
<glyph unicode="*" horiz-adv-x="806" d="M117 1126l33 103l202 -70l-2 213h109l-4 -215l200 70l35 -105l-205 -61l127 -170l-88 -66l-123 176l-122 -174l-89 64l129 172z" />
<glyph unicode="+" d="M90 625v123h365v354h123v-354h364v-123h-364v-355h-123v355h-365z" />
<glyph unicode="," horiz-adv-x="405" d="M29 -125l164 358h137l-164 -358h-137z" />
<glyph unicode="-" horiz-adv-x="479" d="M0 459v123h479v-123h-479z" />
<glyph unicode="." horiz-adv-x="405" d="M135 0v233h137v-233h-137z" />
<glyph unicode="/" horiz-adv-x="790" d="M-16 -356l577 1728h127l-582 -1728h-122z" />
<glyph unicode="0" d="M72 496v409q0 201 108 332q133 160 334 160q193 0 317.5 -139.5t124.5 -352.5v-409q0 -221 -92 -344q-131 -176 -350 -177q-242 0 -371 205q-71 113 -71 316zM209 518q0 -207 63 -293q92 -127 242 -127q168 0 256 150q49 82 49 270v356q0 184 -67 275q-94 125 -238 125 q-70 0 -141.5 -42t-110.5 -106q-53 -86 -53 -252v-356z" />
<glyph unicode="1" d="M268 1249v123h373v-1372h-137v1249h-236z" />
<glyph unicode="2" d="M61 0v123l482 465q127 123 164 168q96 119 96 227q0 119 -88 205t-209 86q-82 0 -153.5 -42t-108.5 -114q-35 -63 -37 -188h-135v18q0 199 123.5 324t318.5 125q176 0 301 -122t125 -296q0 -109 -55.5 -204t-194.5 -228l-444 -424h688v-123h-873z" />
<glyph unicode="3" d="M61 430h136q10 -131 55 -197q92 -135 244 -135q125 0 215 91.5t90 218.5q0 106 -65.5 191t-168.5 110q-41 10 -159 12v121q20 -2 47 -2q115 0 185.5 59t70.5 156q0 94 -61.5 156.5t-153.5 62.5t-149.5 -67.5t-57.5 -176.5h-135q4 164 101 265.5t247 101.5 q145 0 245.5 -101.5t100.5 -251.5q0 -147 -141 -258q231 -123 231 -370q0 -180 -130 -310.5t-310 -130.5q-186 0 -309 129t-128 326z" />
<glyph unicode="4" d="M25 252v123l665 997h164v-997h125v-123h-125v-252h-137v252h-692zM182 375h535v807z" />
<glyph unicode="5" d="M41 430h135q16 -147 109.5 -239.5t224.5 -92.5q137 0 233.5 103.5t96.5 251.5q0 147 -97.5 252.5t-234.5 105.5q-158 0 -281 -156l-106 39l123 678h618v-123h-508l-69 -381q123 66 235 66q188 0 322.5 -141.5t134.5 -339.5q0 -199 -135 -338.5t-328 -139.5 q-137 0 -250.5 73t-173.5 200q-35 72 -49 182z" />
<glyph unicode="6" d="M45 459q0 98 33 178t133 229l340 506h158l-320 -471q80 33 154 33q178 0 310 -142.5t132 -334.5q0 -199 -138 -340.5t-331 -141.5q-197 0 -334 141.5t-137 342.5zM182 463q0 -152 97.5 -258.5t236.5 -106.5q137 0 234.5 104.5t97.5 252.5q0 143 -98.5 248.5t-233.5 105.5 q-137 0 -235.5 -102.5t-98.5 -243.5z" />
<glyph unicode="7" d="M135 1249v123h793v-123l-561 -1249h-146l565 1249h-651z" />
<glyph unicode="8" d="M78 399q0 121 65.5 223.5t167.5 143.5q-63 39 -90 72q-72 86 -71 204q0 150 105 252.5t259 102.5t259.5 -104.5t105.5 -256.5q0 -188 -164 -270q111 -51 175 -148.5t64 -214.5q0 -176 -130 -302t-312 -126q-178 0 -306 125t-128 299zM215 393q0 -123 87 -209t210 -86 q127 0 216 88t89 213q0 123 -89 210t-214 87q-123 0 -211 -89t-88 -214zM287 1053q0 -94 67.5 -161t161.5 -67q90 0 157.5 66.5t67.5 159.5q0 92 -65.5 157.5t-159.5 65.5t-161.5 -65.5t-67.5 -155.5z" />
<glyph unicode="9" d="M45 915q0 199 138.5 340.5t330.5 141.5q197 0 334 -141.5t137 -342.5q0 -98 -31.5 -177t-134.5 -230l-342 -506h-155l317 471q-80 -33 -152 -33q-178 0 -310 142.5t-132 334.5zM182 918q0 -143 98.5 -249t233.5 -106q137 0 235.5 102.5t98.5 243.5q0 152 -97.5 258.5 t-236.5 106.5q-137 0 -234.5 -104.5t-97.5 -251.5z" />
<glyph unicode=":" horiz-adv-x="405" d="M135 0v233h137v-233h-137zM135 782v234h137v-234h-137z" />
<glyph unicode=";" horiz-adv-x="405" d="M29 -125l164 358h137l-164 -358h-137zM193 782v234h137v-234h-137z" />
<glyph unicode="&#x3c;" d="M70 635v115l893 411v-131l-752 -338l752 -340v-129z" />
<glyph unicode="=" d="M90 502l2 123h850v-123h-852zM90 750l2 122h850v-122h-852z" />
<glyph unicode="&#x3e;" d="M70 223v131l751 338l-751 338v131l891 -411v-115z" />
<glyph unicode="?" horiz-adv-x="960" d="M31 944v37q0 170 129 293t307 123t299 -119t121 -293q0 -86 -36 -153.5t-128 -153.5q-176 -162 -186 -320h-138v29q0 170 195 348q96 88 126 136.5t30 117.5q0 113 -85 195t-204 82q-162 0 -254 -142q-43 -65 -45 -180h-131zM399 0v233h138v-233h-138z" />
<glyph unicode="@" horiz-adv-x="1560" d="M96 686q0 299 207 505t510 206q281 0 467 -174t186 -437q0 -195 -101 -342t-237 -147q-63 0 -104 39t-45 102q-94 -150 -258 -149q-127 0 -208 94t-81 240q0 174 105.5 296.5t257.5 122.5q172 0 231 -165l27 141l96 -2l-84 -441q-14 -76 -14 -96q0 -98 84 -98 q94 0 167.5 124t73.5 279q0 227 -158.5 375t-402.5 148q-262 0 -442 -180.5t-180 -442.5q0 -258 172 -438t471 -180q225 0 440 100l29 -88q-219 -102 -469 -103q-332 0 -536 204t-204 507zM541 627q0 -106 55 -173t145 -67q104 0 175 98.5t71 243.5q0 100 -50 157.5 t-134 57.5q-109 0 -185.5 -93t-76.5 -224z" />
<glyph unicode="A" horiz-adv-x="1349" d="M10 0l588 1372h154l589 -1372h-149l-199 463h-639l-200 -463h-144zM406 586h534l-264 631z" />
<glyph unicode="B" horiz-adv-x="1095" d="M147 0v1372h345q205 0 317 -90q133 -106 133 -274q0 -162 -151 -277q106 -43 167.5 -133t61.5 -205q0 -223 -193 -332q-106 -61 -333 -61h-347zM285 123h192q176 0 258 37q63 29 105.5 95.5t42.5 137.5q0 76 -45 141.5t-117 92.5q-79 30 -256 30h-12h-168v-534zM285 780 h172q164 0 237 41q47 27 79 80t32 111q0 111 -90 178q-78 59 -246 59h-184v-469z" />
<glyph unicode="C" horiz-adv-x="1478" d="M74 686q0 297 207.5 504t506.5 207q254 0 449 -156q133 -106 182 -219h-153q-78 117 -206 184.5t-272 67.5q-231 0 -404 -176t-173 -414q0 -233 174 -409.5t403 -176.5q188 0 345 117q71 53 139 145h153q-96 -178 -266 -281.5t-366 -103.5q-299 0 -509 207t-210 504z" />
<glyph unicode="D" horiz-adv-x="1380" d="M147 0v1372h394q276 0 452 -112q145 -92 229.5 -248t84.5 -328q0 -174 -86 -329.5t-234 -248.5q-170 -106 -438 -106h-402zM285 123h198q182 0 289 28.5t195 102.5q203 168 202 434q0 301 -254 463q-154 98 -432 98h-198v-1126z" />
<glyph unicode="E" horiz-adv-x="997" d="M147 0v1372h752v-123h-614v-493h594v-123h-594v-510h614v-123h-752z" />
<glyph unicode="F" horiz-adv-x="901" d="M147 0v1372h695v-123h-557v-497h536v-123h-536v-629h-138z" />
<glyph unicode="G" horiz-adv-x="1603" d="M74 686q0 295 214 503t519 208q193 0 381 -105q205 -115 264 -284h-156q-68 119 -200.5 192.5t-284.5 73.5q-248 0 -424 -173t-176 -415q0 -244 178 -416t428 -172q190 0 349 118t204 292h-766v123h932q-23 -279 -231.5 -467.5t-493.5 -188.5q-301 0 -519 210t-218 501z " />
<glyph unicode="H" horiz-adv-x="1284" d="M147 0v1372h138v-604h712v604h138v-1372h-138v645h-712v-645h-138z" />
<glyph unicode="I" horiz-adv-x="434" d="M147 0v1372h138v-1372h-138z" />
<glyph unicode="J" horiz-adv-x="868" d="M0 326h135q8 -100 76 -164t164 -64q158 0 207 144q16 49 16 164v966h137v-966q0 -174 -45 -254q-100 -176 -319 -177q-156 0 -258.5 97.5t-112.5 253.5z" />
<glyph unicode="K" horiz-adv-x="1114" d="M147 0v1372h138v-788l633 788h176l-543 -670l543 -702h-172l-459 594l-178 -217v-377h-138z" />
<glyph unicode="L" horiz-adv-x="890" d="M147 0v1372h138v-1249h569v-123h-707z" />
<glyph unicode="M" horiz-adv-x="1720" d="M147 0v1372h211l500 -1167l500 1167h213v-1372h-137v1221l-519 -1221h-116l-514 1221v-1221h-138z" />
<glyph unicode="N" horiz-adv-x="1388" d="M147 0v1372h187l770 -1139v1139h137v-1372h-137l-819 1208v-1208h-138z" />
<glyph unicode="O" horiz-adv-x="1599" d="M74 694q0 287 215 495t512 208q299 0 513 -209t214 -502t-214 -502t-511 -209q-303 0 -516 210t-213 509zM211 690q0 -246 173 -419t419 -173q240 0 414 173t174 413q0 244 -173 417t-417 173q-240 0 -415 -173t-175 -411z" />
<glyph unicode="P" horiz-adv-x="1107" d="M147 0v1372h383q233 0 357 -80q170 -111 170 -331q0 -199 -148 -312q-123 -94 -346 -94h-278v-555h-138zM285 678h258q172 0 256 55q121 78 121 230q0 178 -162 249q-84 37 -275 37h-198v-571z" />
<glyph unicode="Q" horiz-adv-x="1624" d="M74 682q0 303 213 509t528 206t526 -206t211 -515q0 -291 -231 -506q96 -68 180 -68q17 0 29 2v-129q-178 0 -307 119q-174 -119 -412 -119q-305 0 -521 207t-216 500zM211 676v-6q0 -66 22 -152q147 45 291 45q297 0 525 -162q88 -61 176 -139q190 186 190 418 q0 248 -174 421t-424 173q-254 0 -430 -174t-176 -424zM291 401q70 -141 221 -223q141 -80 305 -80q176 0 301 90q-16 14 -28 21q-141 119 -269 172q-143 59 -317 59q-113 0 -213 -39z" />
<glyph unicode="R" horiz-adv-x="1163" d="M147 0v1372h349q209 0 309 -39q125 -49 199.5 -157.5t74.5 -245.5q0 -172 -114.5 -290t-292.5 -128l387 -512h-172l-465 623h55q215 0 307 49q158 84 158 264q0 176 -149 262q-88 51 -269 51h-239v-1249h-138z" />
<glyph unicode="S" horiz-adv-x="950" d="M31 385h147q10 -117 64 -184q80 -102 219 -103q115 0 196.5 81t81.5 194q0 117 -94 196q-63 53 -213 93q-186 47 -260 120q-96 96 -96 246q0 158 110.5 263.5t276.5 105.5q162 0 271.5 -106.5t109.5 -264.5h-144q-10 111 -78.5 179.5t-170.5 68.5q-100 0 -169 -69.5 t-69 -172.5q0 -100 66 -158q49 -41 204 -86q186 -53 256 -110q137 -115 138 -299q0 -166 -123 -285t-297 -119q-182 0 -300 114t-126 296z" />
<glyph unicode="T" horiz-adv-x="817" d="M25 1249v123h768v-123h-316v-1249h-137v1249h-315z" />
<glyph unicode="U" horiz-adv-x="1204" d="M135 516v856h137v-856q0 -188 88.5 -297.5t241.5 -109.5q154 0 242 109.5t88 297.5v856h137v-856q0 -236 -100 -366q-133 -174 -367 -175q-231 0 -364 175q-102 135 -103 366z" />
<glyph unicode="V" horiz-adv-x="1261" d="M-4 1372h151l484 -1200l485 1200h150l-570 -1372h-135z" />
<glyph unicode="W" horiz-adv-x="1802" d="M31 1372h141l336 -1196l330 1196h129l327 -1194l338 1194h142l-394 -1372h-176l-303 1124l-301 -1124h-178z" />
<glyph unicode="X" horiz-adv-x="1120" d="M10 0l467 700l-440 672h160l366 -549l363 549h157l-440 -672l469 -700h-162l-387 586l-391 -586h-162z" />
<glyph unicode="Y" horiz-adv-x="1101" d="M2 1372h152l393 -770l401 770h150l-482 -913v-459h-137v459z" />
<glyph unicode="Z" horiz-adv-x="954" d="M51 0v123l674 1126h-653v123h809v-123l-674 -1126h694v-123h-850z" />
<glyph unicode="[" horiz-adv-x="710" d="M141 115v782q0 229 142 375q109 113 233 141v-133q-242 -96 -242 -381v-760q0 -160 52.5 -247.5t189.5 -155.5v-133q-147 41 -248 153q-127 141 -127 359z" />
<glyph unicode="\" horiz-adv-x="790" d="M102 1372h127l578 -1728h-123z" />
<glyph unicode="]" horiz-adv-x="710" d="M197 -264q242 98 241 381v760q0 160 -52 247.5t-189 155.5v133q147 -41 247 -153q127 -141 127 -359v-782q0 -229 -141 -375q-109 -113 -233 -141v133z" />
<glyph unicode="^" d="M59 762l371 614h170l371 -614h-144l-313 510l-311 -510h-144z" />
<glyph unicode="_" d="M0 -141h1030v-121h-1030v121z" />
<glyph unicode="`" d="M250 1409l74 86l319 -270l-72 -82z" />
<glyph unicode="a" horiz-adv-x="1280" d="M68 510q0 223 158.5 376.5t387.5 153.5q254 0 400 -204v180h131v-1016h-131v178q-147 -203 -400 -203q-227 0 -386.5 156t-159.5 379zM199 514q0 -174 121.5 -298t291.5 -124q164 0 283 122t119 292q0 174 -118 296t-284 122t-289.5 -122t-123.5 -288z" />
<glyph unicode="b" horiz-adv-x="1280" d="M135 0v1372h137v-530q134 198 389 198h3q227 0 386.5 -154.5t159.5 -373.5q0 -221 -158.5 -379t-379.5 -158q-127 0 -236.5 53.5t-169.5 145.5v-174h-131zM264 514q0 -180 119 -301t289 -121t288.5 122t118.5 298q0 172 -118.5 292t-288.5 120q-174 0 -291 -118 t-117 -292z" />
<glyph unicode="c" horiz-adv-x="1173" d="M70 506q0 221 159.5 377.5t384.5 156.5q172 0 308.5 -90t197.5 -241h-153q-123 215 -355 215q-172 0 -291.5 -121t-119.5 -293q0 -176 118.5 -297t292.5 -121q208 0 355 205h153q-86 -162 -209 -240q-131 -82 -286 -82q-233 0 -394 154t-161 377z" />
<glyph unicode="d" horiz-adv-x="1275" d="M68 508q0 223 158.5 377.5t385.5 154.5q242 0 398 -186v518h131v-1372h-123v182q-84 -100 -152 -141q-109 -66 -256 -66q-225 0 -383.5 156t-158.5 377zM199 518q0 -176 119.5 -301t289.5 -125q166 0 287 124t121 294q0 172 -121 293t-291 121q-164 0 -284.5 -121 t-120.5 -285z" />
<glyph unicode="e" horiz-adv-x="1198" d="M70 508q0 219 154.5 375.5t373.5 156.5q141 0 264 -72.5t195 -197.5q63 -110 71 -309h-921q8 -150 122.5 -259.5t266.5 -109.5q115 0 217 68.5t141 171.5h144q-55 -158 -194.5 -257.5t-303.5 -99.5q-219 0 -374.5 156t-155.5 377zM209 578h780q-37 158 -142.5 252 t-248.5 94t-252.5 -97t-136.5 -249z" />
<glyph unicode="f" horiz-adv-x="577" d="M18 899v117h158q10 182 90 258q96 92 279 92h20v-125q-8 2 -20 2q-129 0 -193 -69q-45 -49 -45 -158h258v-117h-258v-899h-131v899h-158z" />
<glyph unicode="g" horiz-adv-x="1259" d="M68 504q0 219 153.5 377.5t366.5 158.5q262 0 405 -209v185h131v-893q0 -117 -16 -176q-18 -78 -80 -154q-72 -88 -184.5 -140t-237.5 -52q-231 0 -391 170q-70 74 -111 202h136q51 -94 104 -149q102 -106 272 -107q164 0 270.5 104.5t106.5 266.5v113 q-45 -102 -153.5 -164t-241.5 -62q-219 0 -374.5 156t-155.5 373zM199 518q0 -182 114.5 -304t284.5 -122q164 0 279.5 123t115.5 297q0 170 -118.5 291t-286.5 121q-160 0 -274.5 -119t-114.5 -287z" />
<glyph unicode="h" horiz-adv-x="1155" d="M135 0v1372h131v-487q108 155 306 155h3q227 0 359 -166q94 -119 94 -317v-557h-131v557q0 158 -74 250q-94 117 -248 117q-158 0 -253 -129q-55 -74 -56 -238v-557h-131z" />
<glyph unicode="i" horiz-adv-x="399" d="M135 0v1016h131v-1016h-131zM135 1139v233h131v-233h-131z" />
<glyph unicode="j" horiz-adv-x="399" d="M-72 -223q113 6 159 71.5t46 221.5v946h131v-946q0 -147 -26.5 -222t-98.5 -133q-84 -66 -211 -71v133zM133 1139v233h131v-233h-131z" />
<glyph unicode="k" horiz-adv-x="948" d="M135 0v1372h131v-977l477 621h166l-399 -512l420 -504h-168l-334 401l-162 -206v-195h-131z" />
<glyph unicode="l" horiz-adv-x="399" d="M135 0v1372h131v-1372h-131z" />
<glyph unicode="m" horiz-adv-x="1765" d="M135 0v1016h131v-119q80 143 273 143q133 0 243 -77q47 -33 107 -117q43 88 136 141t206 53q193 0 317 -157q90 -113 90 -281v-602h-131v590q0 145 -65 225q-90 109 -215 109q-143 0 -228 -119q-47 -66 -47 -215v-590h-131v604q0 137 -78.5 228.5t-199.5 91.5 q-152 0 -228 -123q-45 -72 -45 -197v-604h-135z" />
<glyph unicode="n" horiz-adv-x="1155" d="M135 0v1016h131v-131q140 155 312 155h2q227 0 354 -166q94 -123 94 -317v-557h-131v557q0 160 -74 250q-96 117 -243 117q-156 0 -250 -129q-55 -76 -56 -238v-557h-139z" />
<glyph unicode="o" horiz-adv-x="1200" d="M70 514q0 213 157.5 369.5t372.5 156.5q217 0 373.5 -157.5t156.5 -374.5t-156.5 -375t-373.5 -158q-221 0 -375.5 157t-154.5 382zM201 510q0 -176 116.5 -297t284.5 -121t282.5 122t114.5 300q0 168 -112 283q-123 127 -285 127q-164 0 -282.5 -122t-118.5 -292z" />
<glyph unicode="p" horiz-adv-x="1280" d="M135 -356v1372h131v-174q59 92 169 145t237 53q221 0 379.5 -157.5t158.5 -378.5q0 -219 -159.5 -374t-386.5 -155q-256 0 -392 199v-530h-137zM264 514q0 -193 127 -311q119 -111 281 -111q170 0 288.5 120t118.5 292q0 176 -118.5 298t-290.5 122q-170 0 -288 -119 t-118 -291z" />
<glyph unicode="q" horiz-adv-x="1271" d="M70 506q0 219 157.5 376.5t378.5 157.5q129 0 238.5 -53t167.5 -145v174h125v-1372h-131v530q-135 -199 -392 -199q-225 0 -384.5 156t-159.5 375zM201 504q0 -172 118.5 -292t288.5 -120q172 0 289 118t117 292q0 186 -117 301q-123 121 -289 121q-170 0 -288.5 -122 t-118.5 -298z" />
<glyph unicode="r" horiz-adv-x="587" d="M135 0v1016h131v-146q72 160 295 170v-137q-113 -10 -184 -69q-104 -86 -105 -242v-592h-137z" />
<glyph unicode="s" horiz-adv-x="772" d="M49 299h137q4 -94 56.5 -150.5t134.5 -56.5q72 0 126 54.5t54 127.5q0 127 -201 195q-137 47 -192 96q-78 70 -78 185q0 121 85 205.5t206 84.5q117 0 198.5 -78.5t86.5 -197.5h-140q-4 72 -46 116t-105 44q-59 0 -106.5 -46.5t-47.5 -105.5q0 -72 62 -117 q35 -25 118 -53q158 -53 224.5 -120.5t66.5 -178.5q0 -145 -89 -236.5t-230 -91.5q-139 0 -228.5 90.5t-91.5 233.5z" />
<glyph unicode="t" horiz-adv-x="540" d="M-37 899v117h213v356h131v-356h242v-117h-242v-899h-131v899h-213z" />
<glyph unicode="u" horiz-adv-x="1150" d="M127 457v559h131v-559q0 -150 57 -234q90 -131 256 -131q160 0 252 129q61 86 62 236v559h131v-1016h-123v156q-109 -180 -342 -181q-219 0 -340 162q-84 113 -84 320z" />
<glyph unicode="v" horiz-adv-x="999" d="M0 1016h139l357 -854l364 854h139l-428 -1016h-143z" />
<glyph unicode="w" horiz-adv-x="1538" d="M20 1016h136l321 -850l234 727h114l234 -727l325 850h134l-388 -1016h-147l-215 676l-215 -676h-147z" />
<glyph unicode="x" horiz-adv-x="888" d="M20 0l347 516l-347 500h156l266 -391l267 391h159l-348 -500l348 -516h-155l-271 406l-266 -406h-156z" />
<glyph unicode="y" horiz-adv-x="962" d="M0 1016h150l323 -809l344 809h146l-588 -1372h-146l166 389z" />
<glyph unicode="z" horiz-adv-x="825" d="M43 0v117l563 782h-545v117h699v-121l-557 -778h592v-117h-752z" />
<glyph unicode="{" horiz-adv-x="710" d="M61 459v102q119 35 119 189v350q0 145 67.5 211.5t215.5 66.5h43v-110q-115 -2 -155 -40.5t-40 -144.5v-342q0 -98 -27.5 -148t-99.5 -87q70 -35 98.5 -89.5t28.5 -150.5v-325q0 -115 39 -153t156 -40v-110q-176 0 -238 49q-88 70 -88 256v321q0 90 -26.5 133t-92.5 62z " />
<glyph unicode="|" d="M451 -344v1716h131v-1716h-131z" />
<glyph unicode="}" horiz-adv-x="710" d="M205 -252q117 4 156.5 41t39.5 143v342q0 98 28 148.5t99 87.5q-72 37 -99.5 90t-27.5 150v325q0 113 -39.5 152t-156.5 41v110q178 0 239 -49q88 -70 88 -256v-321q0 -88 27 -132.5t90 -62.5v-102q-117 -35 -117 -189v-348q0 -147 -67.5 -213.5t-216.5 -66.5h-43v110z " />
<glyph unicode="~" horiz-adv-x="1372" d="M193 1257q63 125 125.5 177.5t150.5 52.5q80 0 233 -74q145 -70 205 -70q59 0 100.5 32t92.5 114l80 -47q-113 -223 -289 -223q-70 0 -287 102q-88 41 -143 41q-105 0 -189 -156z" />
<glyph unicode="&#xa1;" horiz-adv-x="460" d="M162 -356v1018h137v-1018h-137zM162 782v234h137v-234h-137z" />
<glyph unicode="&#xa2;" d="M76 711q0 168 113.5 290.5t285.5 137.5v174h137v-172q121 -18 211 -93t129 -188h-145q-84 154 -285 154q-133 0 -224 -88t-91 -215t94 -216t225 -89q158 0 273 133h143q-33 -96 -126 -169t-204 -89v-166h-137v166q-100 8 -180 55q-98 57 -158.5 159.5t-60.5 215.5z" />
<glyph unicode="&#xa3;" d="M8 645v123h115q-45 66 -45 176q0 182 127 317.5t301 135.5q160 0 283.5 -113t142.5 -274h-129q-23 113 -110 188.5t-189 75.5q-121 0 -205 -95.5t-84 -232.5q0 -98 51 -178h457v-123h-326q133 -143 133 -309q0 -94 -55 -213h62q160 0 237 70q92 82 92 215q0 43 -12 90 h133q16 -57 17 -105q0 -190 -148 -307q-109 -86 -315 -86h-486v123h258q80 80 80 215q0 86 -45 164q-29 49 -117 127l-18 16h-205z" />
<glyph unicode="&#xa4;" horiz-adv-x="1486" d="M72 506l57 135h98q-2 25 -2 43q0 20 2 47h-155l57 135h119q63 240 253.5 385.5t438.5 145.5q264 0 475 -178l-53 -127q-176 182 -422 182q-182 0 -333.5 -112.5t-213.5 -295.5h873l-58 -135h-843q-2 -25 -3 -45q0 -6 3 -45h804l-57 -135h-719q59 -178 213 -293t334 -115 q250 0 428 195v-174q-203 -143 -424 -144q-248 0 -440.5 146.5t-255.5 384.5h-176z" />
<glyph unicode="&#xa5;" d="M27 1372h151l332 -702l342 702h149l-241 -483h192v-117h-250l-106 -213h315v-117h-331v-442h-138v442h-325v117h309l-104 213h-246v117h188z" />
<glyph unicode="&#xa6;" d="M451 315h131v-659h-131v659zM451 692v680h131v-680h-131z" />
<glyph unicode="&#xa7;" d="M102 629q0 162 166 282q-76 76 -75 189q0 125 92 211t225 86q131 0 227.5 -79t102.5 -192h-131q-4 63 -61.5 105.5t-137.5 42.5q-84 0 -136 -50t-52 -130q0 -100 112 -156l275 -135q217 -106 217 -266q0 -74 -42 -148t-108 -117q96 -84 96 -206q0 -139 -100 -233.5 t-250 -94.5q-164 0 -271.5 106.5t-113.5 274.5h131q8 -117 78 -187.5t176 -70.5q94 0 156.5 58t62.5 144q0 57 -37.5 98.5t-136.5 92.5l-340 176q-125 66 -125 199zM233 651q0 -90 103 -141l350 -174q109 70 109 184q0 99 -121 160l-326 164q-115 -72 -115 -193z" />
<glyph unicode="&#xa8;" d="M315 1174v233h131v-233h-131zM582 1174v233h131v-233h-131z" />
<glyph unicode="&#xa9;" horiz-adv-x="1613" d="M96 694q0 285 211 494t500 209q293 0 502 -209t209 -502t-209 -502t-500 -209q-297 0 -505 210t-208 509zM162 692q0 -274 189.5 -466.5t457.5 -192.5q262 0 452.5 192.5t190.5 458.5q0 268 -190.5 461.5t-454.5 193.5q-262 0 -453.5 -192.5t-191.5 -454.5zM354 700 q0 178 133.5 302t325.5 124q131 0 247 -67.5t159 -167.5h-109q-106 150 -299 149q-143 0 -249.5 -102t-106.5 -240q0 -133 107.5 -235.5t250.5 -102.5q180 0 299 154h113q-63 -113 -172 -176.5t-238 -63.5q-193 0 -327 124t-134 302z" />
<glyph unicode="&#xaa;" horiz-adv-x="841" d="M55 856q0 133 102.5 226.5t250.5 93.5q154 0 243 -107v92h97v-612h-97v92q-90 -106 -245 -106q-145 0 -248 94t-103 227zM152 858q0 -100 74.5 -171t179.5 -71q100 0 172.5 71t72.5 167q0 98 -72.5 169t-172.5 71q-102 0 -178 -71t-76 -165z" />
<glyph unicode="&#xab;" horiz-adv-x="833" d="M90 522l211 369l109 -57l-174 -312l174 -313l-109 -59zM414 522l209 369l108 -57l-174 -312l174 -313l-108 -59z" />
<glyph unicode="&#xac;" d="M70 428v121h893v-549h-132v428h-761z" />
<glyph unicode="&#xad;" horiz-adv-x="479" d="M0 459v123h479v-123h-479z" />
<glyph unicode="&#xae;" horiz-adv-x="1613" d="M96 694q0 285 211 494t500 209q293 0 502 -209t209 -502t-209 -502t-500 -209q-297 0 -505 210t-208 509zM162 692q0 -274 189.5 -466.5t457.5 -192.5q262 0 452.5 192.5t190.5 458.5q0 268 -190.5 461.5t-454.5 193.5q-262 0 -453.5 -192.5t-191.5 -454.5zM549 289v823 h227q133 0 197 -22q82 -29 130 -95.5t48 -150.5q0 -100 -71.5 -171t-180.5 -81l246 -303h-127l-303 381h51q127 0 188 28q96 45 97 150q0 98 -90 147q-57 31 -168 31h-144v-737h-100z" />
<glyph unicode="&#xaf;" d="M0 1647v118h1030v-118h-1030z" />
<glyph unicode="&#xb0;" horiz-adv-x="778" d="M115 1108q0 106 80.5 185t191.5 79q115 0 195 -77.5t80 -188.5t-80 -189.5t-193 -78.5q-115 0 -194.5 78.5t-79.5 191.5zM203 1108q0 -78 54 -132t132 -54q76 0 130 54t54 130t-54 129t-130 53t-131 -53t-55 -127z" />
<glyph unicode="&#xb1;" d="M90 55l2 123h850v-123h-852zM90 625v123h365v354h123v-354h364v-123h-364v-355h-123v355h-365z" />
<glyph unicode="&#xb2;" horiz-adv-x="684" d="M49 549v82l305 276q100 90 131 134t31 96q0 66 -53 114.5t-127 48.5q-106 0 -160 -88q-23 -37 -22 -106q0 -2 2 -8h-101v14q0 121 80 197.5t207 76.5q115 0 194.5 -73.5t79.5 -179.5q0 -117 -159 -261l-267 -237h422v-86h-563z" />
<glyph unicode="&#xb3;" horiz-adv-x="684" d="M49 817h101q4 -78 34 -119q57 -78 146 -77q76 0 131 52t55 124q0 70 -48 119t-116 57q-25 2 -84 2v86q16 -2 35 -2q72 0 114 32.5t42 88.5q0 51 -37 85.5t-92 34.5t-89 -37.5t-34 -101.5v-4h-98q2 102 63 165.5t162 63.5q94 0 159.5 -62t65.5 -153q0 -88 -84 -149 q141 -70 141 -221q0 -109 -83.5 -187.5t-200.5 -78.5q-162 0 -242 131q-39 61 -41 151z" />
<glyph unicode="&#xb4;" d="M387 1225l320 270l73 -86l-321 -266z" />
<glyph unicode="&#xb5;" d="M104 -344v1333h132v-567q0 -195 81 -272q76 -74 189 -74q133 0 211 100t78 266v547h131v-989h-131v186q-94 -213 -293 -213q-170 0 -266 156v-473h-132z" />
<glyph unicode="&#xb6;" d="M55 1004q0 213 156 311q92 57 252 57h477v-104h-119v-1473h-114v1473h-168v-1473h-115v850q-100 0 -160 23q-98 37 -153.5 126t-55.5 210z" />
<glyph unicode="&#xb7;" horiz-adv-x="405" d="M135 403v234h137v-234h-137z" />
<glyph unicode="&#xb8;" d="M395 -285l82 11q14 -63 84 -64q35 0 57.5 24.5t22.5 61.5q0 39 -25.5 64.5t-62.5 25.5q-41 0 -76 -41l-55 31l76 172h67l-45 -113q31 14 60 15q63 0 104 -41t41 -107q0 -72 -48 -121t-120 -49q-129 0 -162 131z" />
<glyph unicode="&#xb9;" horiz-adv-x="684" d="M180 1286v86h250v-823h-100v737h-150z" />
<glyph unicode="&#xba;" horiz-adv-x="790" d="M55 860q0 129 101.5 223.5t238.5 94.5q139 0 240.5 -95.5t101.5 -226.5t-101 -226t-239 -95q-143 0 -242.5 95t-99.5 230zM152 858q0 -100 71.5 -171t173.5 -71t173 71t71 173q0 96 -72 166t-172 70t-172.5 -71t-72.5 -167z" />
<glyph unicode="&#xbb;" horiz-adv-x="833" d="M102 209l174 313l-174 312l109 57l211 -369l-211 -372zM426 209l174 313l-174 312l109 57l208 -369l-208 -372z" />
<glyph unicode="&#xbc;" horiz-adv-x="1705" d="M180 1286v86h250v-823h-100v737h-150zM492 0l618 1372h107l-619 -1372h-106zM1051 147v82l424 594h112v-590h78v-86h-78v-147h-100v147h-436zM1169 233h318v449z" />
<glyph unicode="&#xbd;" horiz-adv-x="1705" d="M180 1286v86h250v-823h-100v737h-150zM492 0l618 1372h107l-619 -1372h-106zM1073 0v82l305 276q98 90 130 134.5t32 95.5q0 68 -54 117t-126 49q-111 0 -160 -88q-23 -39 -22 -109q0 -2 2 -8h-101v16q0 121 80 198t207 77q113 0 193.5 -75t80.5 -179q0 -119 -159 -262 l-267 -238h422v-86h-563z" />
<glyph unicode="&#xbe;" horiz-adv-x="1705" d="M49 817h101q4 -78 34 -119q57 -78 146 -77q76 0 131 52t55 124q0 70 -48 119t-116 57q-25 2 -84 2v86q16 -2 35 -2q72 0 114 32.5t42 88.5q0 51 -37 85.5t-92 34.5t-89 -37.5t-34 -101.5v-4h-98q2 102 63 165.5t162 63.5q94 0 159.5 -62t65.5 -153q0 -88 -84 -149 q141 -70 141 -221q0 -109 -83.5 -187.5t-200.5 -78.5q-162 0 -242 131q-39 61 -41 151zM492 0l616 1372h106l-618 -1372h-104zM1049 147v82l424 594h112v-590h80v-86h-80v-147h-100v147h-436zM1167 233h318v449z" />
<glyph unicode="&#xbf;" horiz-adv-x="960" d="M74 31q0 86 35.5 153.5t128.5 153.5q176 162 186 319h137q6 -195 -194 -376q-96 -86 -126 -135.5t-30 -118.5q0 -113 85 -195t204 -82q158 0 252 141q41 62 47 181h129q2 -16 2 -37q0 -170 -129 -293t-307 -123t-299 119t-121 293zM424 782v234h137v-234h-137z" />
<glyph unicode="&#xc0;" horiz-adv-x="1349" d="M10 0l588 1372h154l589 -1372h-149l-199 463h-639l-200 -463h-144zM397 1702l60 102l358 -217l-59 -98zM406 586h534l-264 631z" />
<glyph unicode="&#xc1;" horiz-adv-x="1349" d="M10 0l588 1372h154l589 -1372h-149l-199 463h-639l-200 -463h-144zM406 586h534l-264 631zM535 1587l358 217l59 -102l-358 -213z" />
<glyph unicode="&#xc2;" horiz-adv-x="1349" d="M10 0l588 1372h154l589 -1372h-149l-199 463h-639l-200 -463h-144zM346 1509l268 234h125l265 -234h-166l-160 138l-162 -138h-170zM406 586h534l-264 631z" />
<glyph unicode="&#xc3;" horiz-adv-x="1349" d="M10 0l588 1372h154l589 -1372h-149l-199 463h-639l-200 -463h-144zM377 1618q74 106 178 106q51 0 174 -55q59 -27 84 -27q60 0 109 74l67 -82q-70 -104 -182 -104q-53 0 -180 59q-39 18 -74 19q-57 0 -111 -72zM406 586h534l-264 631z" />
<glyph unicode="&#xc4;" horiz-adv-x="1349" d="M10 0l588 1372h154l589 -1372h-149l-199 463h-639l-200 -463h-144zM406 586h534l-264 631zM469 1509v234h137v-234h-137zM743 1509v234h138v-234h-138z" />
<glyph unicode="&#xc5;" horiz-adv-x="1349" d="M10 0l588 1372h154l589 -1372h-149l-199 463h-639l-200 -463h-144zM406 586h534l-264 631zM483 1677q0 78 57.5 134.5t135.5 56.5q80 0 136 -56.5t56 -136.5q0 -78 -56 -135t-136 -57t-136.5 56t-56.5 138zM580 1677q0 -43 27.5 -72.5t68.5 -29.5q39 0 67.5 29.5 t28.5 70.5t-28.5 71t-67.5 30t-67.5 -30t-28.5 -69z" />
<glyph unicode="&#xc6;" horiz-adv-x="1779" d="M-35 0l955 1372h763v-123h-587v-493h567v-123h-567v-510h587v-123h-725v465h-505l-324 -465h-164zM541 588h417v610z" />
<glyph unicode="&#xc7;" horiz-adv-x="1478" d="M74 684q0 297 207.5 504t506.5 207q250 0 449 -156q133 -104 182 -217h-153q-78 115 -206 182.5t-272 67.5q-231 0 -404 -176t-173 -412q0 -231 174 -407.5t403 -176.5q186 0 345 117q70 51 139 143h153q-88 -170 -262 -277.5t-364 -107.5l-43 -102q47 14 63 14 q63 0 103.5 -44t40.5 -113q0 -76 -50.5 -126t-124.5 -50q-135 0 -170 139l87 12q23 -63 79 -63q37 0 61.5 24.5t24.5 61.5t-25.5 64.5t-62.5 27.5q-39 0 -75 -43l-56 30l74 173q-285 31 -468 229.5t-183 474.5z" />
<glyph unicode="&#xc8;" horiz-adv-x="997" d="M147 0v1372h752v-123h-614v-493h594v-123h-594v-510h614v-123h-752zM266 1702l60 102l358 -217l-59 -98z" />
<glyph unicode="&#xc9;" horiz-adv-x="997" d="M147 0v1372h752v-123h-614v-493h594v-123h-594v-510h614v-123h-752zM397 1587l359 217l59 -102l-358 -213z" />
<glyph unicode="&#xca;" horiz-adv-x="997" d="M147 0v1372h752v-123h-614v-493h594v-123h-594v-510h614v-123h-752zM201 1509l268 234h125l264 -234h-166l-160 138l-161 -138h-170z" />
<glyph unicode="&#xcb;" horiz-adv-x="997" d="M147 0v1372h752v-123h-614v-493h594v-123h-594v-510h614v-123h-752zM332 1509v234h137v-234h-137zM606 1509v234h137v-234h-137z" />
<glyph unicode="&#xcc;" horiz-adv-x="434" d="M-61 1702l59 102l358 -217l-59 -98zM147 0v1372h138v-1372h-138z" />
<glyph unicode="&#xcd;" horiz-adv-x="434" d="M76 1587l358 217l60 -102l-359 -213zM147 0v1372h138v-1372h-138z" />
<glyph unicode="&#xce;" horiz-adv-x="434" d="M-76 1509l232 234h123l229 -234h-164l-127 138l-127 -138h-166zM147 0v1372h138v-1372h-138z" />
<glyph unicode="&#xcf;" horiz-adv-x="434" d="M39 1509v234h131v-234h-131zM150 0v1372h137v-1372h-137zM264 1509v234h131v-234h-131z" />
<glyph unicode="&#xd0;" horiz-adv-x="1380" d="M0 649v123h147v600h394q279 0 454 -112q145 -92 229.5 -248t84.5 -328q0 -174 -86 -329.5t-234 -248.5q-170 -106 -440 -106h-402v649h-147zM285 123h198q184 0 290 28.5t196 102.5q203 168 202 436q0 297 -256 461q-154 98 -432 98h-198v-477h415v-123h-415v-526z" />
<glyph unicode="&#xd1;" horiz-adv-x="1388" d="M147 0v1372h187l770 -1139v1139h137v-1372h-137l-819 1208v-1208h-138zM387 1618q74 106 178 106q51 0 174 -55q59 -27 84 -27q60 0 109 74l67 -82q-70 -104 -182 -104q-53 0 -180 59q-39 18 -74 19q-57 0 -110 -72z" />
<glyph unicode="&#xd2;" horiz-adv-x="1599" d="M74 694q0 287 215 495t512 208q299 0 513 -209t214 -502t-214 -502t-511 -209q-303 0 -516 210t-213 509zM211 690q0 -246 173 -419t419 -173q240 0 414 173t174 413q0 244 -173 417t-417 173q-240 0 -415 -173t-175 -411zM530 1702l60 102l358 -217l-59 -98z" />
<glyph unicode="&#xd3;" horiz-adv-x="1599" d="M74 694q0 287 215 495t512 208q299 0 513 -209t214 -502t-214 -502t-511 -209q-303 0 -516 210t-213 509zM211 690q0 -246 173 -419t419 -173q240 0 414 173t174 413q0 244 -173 417t-417 173q-240 0 -415 -173t-175 -411zM659 1587l359 217l59 -102l-358 -213z" />
<glyph unicode="&#xd4;" horiz-adv-x="1599" d="M74 694q0 287 215 495t512 208q299 0 513 -209t214 -502t-214 -502t-511 -209q-303 0 -516 210t-213 509zM211 690q0 -246 173 -419t419 -173q240 0 414 173t174 413q0 244 -173 417t-417 173q-240 0 -415 -173t-175 -411zM471 1509l268 234h125l264 -234h-165l-160 138 l-162 -138h-170z" />
<glyph unicode="&#xd5;" horiz-adv-x="1599" d="M74 694q0 287 215 495t512 208q299 0 513 -209t214 -502t-214 -502t-511 -209q-303 0 -516 210t-213 509zM211 690q0 -246 173 -419t419 -173q240 0 414 173t174 413q0 244 -173 417t-417 173q-240 0 -415 -173t-175 -411zM508 1618q74 106 178 106q51 0 174 -55 q59 -27 84 -27q60 0 109 74l67 -82q-70 -104 -182 -104q-53 0 -180 59q-39 18 -74 19q-57 0 -111 -72z" />
<glyph unicode="&#xd6;" horiz-adv-x="1599" d="M74 694q0 287 215 495t512 208q299 0 513 -209t214 -502t-214 -502t-511 -209q-303 0 -516 210t-213 509zM211 690q0 -246 173 -419t419 -173q240 0 414 173t174 413q0 244 -173 417t-417 173q-240 0 -415 -173t-175 -411zM594 1509v234h137v-234h-137zM868 1509v234h138 v-234h-138z" />
<glyph unicode="&#xd7;" d="M150 406l280 280l-280 283l83 82l281 -281l281 281l84 -84l-281 -281l281 -280l-84 -84l-281 280l-281 -280z" />
<glyph unicode="&#xd8;" horiz-adv-x="1599" d="M74 686q0 293 214 502t513 209q195 0 377 -105l153 201l99 -72l-148 -202q246 -217 246 -533q0 -293 -214 -502t-513 -209q-195 0 -375 103l-150 -199l-104 74l152 201q-250 219 -250 532zM211 684q0 -254 190 -428l701 934q-147 84 -301 84q-242 0 -416 -173t-174 -417z M504 180q141 -82 297 -82q242 0 416 173t174 413q-1 248 -189 430z" />
<glyph unicode="&#xd9;" horiz-adv-x="1204" d="M135 516v856h137v-856q0 -188 88.5 -297.5t241.5 -109.5q154 0 242 109.5t88 297.5v856h137v-856q0 -236 -100 -366q-133 -174 -367 -175q-231 0 -364 175q-102 135 -103 366zM326 1702l59 102l358 -217l-59 -98z" />
<glyph unicode="&#xda;" horiz-adv-x="1204" d="M135 516v856h137v-856q0 -188 88.5 -297.5t241.5 -109.5q154 0 242 109.5t88 297.5v856h137v-856q0 -236 -100 -366q-133 -174 -367 -175q-231 0 -364 175q-102 135 -103 366zM475 1587l359 217l59 -102l-358 -213z" />
<glyph unicode="&#xdb;" horiz-adv-x="1204" d="M135 516v856h137v-856q0 -188 88.5 -297.5t241.5 -109.5q154 0 242 109.5t88 297.5v856h137v-856q0 -236 -100 -366q-133 -174 -367 -175q-231 0 -364 175q-102 135 -103 366zM274 1509l269 234h125l264 -234h-166l-160 138l-162 -138h-170z" />
<glyph unicode="&#xdc;" horiz-adv-x="1204" d="M135 516v856h137v-856q0 -188 88.5 -297.5t241.5 -109.5q154 0 242 109.5t88 297.5v856h137v-856q0 -236 -100 -366q-133 -174 -367 -175q-231 0 -364 175q-102 135 -103 366zM397 1509v234h138v-234h-138zM672 1509v234h137v-234h-137z" />
<glyph unicode="&#xdd;" horiz-adv-x="1101" d="M2 1372h152l393 -770l401 770h150l-482 -913v-459h-137v459zM436 1587l359 217l59 -102l-358 -213z" />
<glyph unicode="&#xde;" horiz-adv-x="1107" d="M147 0v1372h138v-213h245q233 0 357 -80q170 -111 170 -329q0 -197 -148 -312q-125 -96 -346 -96h-278v-342h-138zM285 465h258q172 0 256 53q121 78 121 232q0 180 -162 251q-80 35 -275 35h-198v-571z" />
<glyph unicode="&#xdf;" horiz-adv-x="1062" d="M127 0v893q0 227 68 334q49 76 137 123t182 47q156 0 268.5 -115t112.5 -274q0 -190 -156 -285q252 -88 252 -352q0 -170 -112 -281q-119 -115 -275 -115q-131 0 -239 84q-68 53 -107 144v-203h-131zM264 377h90q4 -121 76 -203t172 -82q106 0 182 79t76 187 q0 170 -143 238q-82 39 -217 39q-35 0 -68 -2v125q131 0 199 37q133 72 133 227q0 106 -74 182t-176 76q-143 0 -211 -135q-39 -80 -39 -252v-516z" />
<glyph unicode="&#xe0;" horiz-adv-x="1280" d="M68 510q0 223 158.5 376.5t387.5 153.5q254 0 400 -204v180h131v-1016h-131v178q-147 -203 -400 -203q-227 0 -386.5 156t-159.5 379zM199 514q0 -174 121.5 -298t291.5 -124q164 0 283 122t119 292q0 174 -118 296t-284 122t-289.5 -122t-123.5 -288zM369 1409l73 86 l320 -270l-72 -82z" />
<glyph unicode="&#xe1;" horiz-adv-x="1280" d="M68 510q0 223 158.5 376.5t387.5 153.5q254 0 400 -204v180h131v-1016h-131v178q-147 -203 -400 -203q-227 0 -386.5 156t-159.5 379zM199 514q0 -174 121.5 -298t291.5 -124q164 0 283 122t119 292q0 174 -118 296t-284 122t-289.5 -122t-123.5 -288zM485 1225l320 270 l74 -86l-322 -266z" />
<glyph unicode="&#xe2;" horiz-adv-x="1280" d="M68 510q0 223 158.5 376.5t387.5 153.5q254 0 400 -204v180h131v-1016h-131v178q-147 -203 -400 -203q-227 0 -386.5 156t-159.5 379zM199 514q0 -174 121.5 -298t291.5 -124q164 0 283 122t119 292q0 174 -118 296t-284 122t-289.5 -122t-123.5 -288zM324 1167l243 252 h123l240 -252h-156l-145 156l-146 -156h-159z" />
<glyph unicode="&#xe3;" horiz-adv-x="1280" d="M68 510q0 223 158.5 376.5t387.5 153.5q254 0 400 -204v180h131v-1016h-131v178q-147 -203 -400 -203q-227 0 -386.5 156t-159.5 379zM199 514q0 -174 121.5 -298t291.5 -124q164 0 283 122t119 292q0 174 -118 296t-284 122t-289.5 -122t-123.5 -288zM328 1274 q74 98 180 98q66 0 166 -51q49 -25 82 -25q53 0 104 72l66 -80q-70 -100 -183 -100q-51 0 -172 57q-39 18 -65 19q-57 0 -113 -70z" />
<glyph unicode="&#xe4;" horiz-adv-x="1280" d="M68 510q0 223 158.5 376.5t387.5 153.5q254 0 400 -204v180h131v-1016h-131v178q-147 -203 -400 -203q-227 0 -386.5 156t-159.5 379zM199 514q0 -174 121.5 -298t291.5 -124q164 0 283 122t119 292q0 174 -118 296t-284 122t-289.5 -122t-123.5 -288zM422 1174v233h131 v-233h-131zM688 1174v233h131v-233h-131z" />
<glyph unicode="&#xe5;" horiz-adv-x="1280" d="M68 510q0 223 158.5 376.5t387.5 153.5q254 0 400 -204v180h131v-1016h-131v178q-147 -203 -400 -203q-227 0 -386.5 156t-159.5 379zM199 514q0 -174 121.5 -298t291.5 -124q164 0 283 122t119 292q0 174 -118 296t-284 122t-289.5 -122t-123.5 -288zM436 1343 q0 78 57.5 134.5t135.5 56.5q80 0 136 -56.5t56 -136.5q0 -78 -56 -135t-136 -57t-136.5 56.5t-56.5 137.5zM528 1343q0 -45 30 -75.5t71 -30.5t70.5 30.5t29.5 73.5t-29.5 74t-70.5 31t-71 -31t-30 -72z" />
<glyph unicode="&#xe6;" horiz-adv-x="2142" d="M70 506q0 207 149 366q156 168 402 168q256 0 397 -196v172h131v-172q59 88 167.5 142t225.5 54q158 0 294 -92t196 -237q39 -94 41 -252h-918q14 -154 128 -260.5t263 -106.5q111 0 211.5 68.5t138.5 171.5h144q-49 -154 -189.5 -255.5t-304.5 -101.5q-231 0 -397 189 v-164h-131v164q-158 -188 -400 -189q-264 0 -421 189q-127 152 -127 342zM201 502q0 -168 120.5 -289t288.5 -121q170 0 290 119t120 287q0 182 -117 304t-291 122q-170 0 -290.5 -124t-120.5 -298zM1161 575h768q-20 152 -129.5 250.5t-255.5 98.5q-143 0 -251.5 -98.5 t-131.5 -250.5z" />
<glyph unicode="&#xe7;" horiz-adv-x="1173" d="M70 506q0 221 159.5 377.5t384.5 156.5q172 0 308.5 -90t197.5 -241h-153q-123 215 -355 215q-172 0 -291.5 -121t-119.5 -293q0 -176 118.5 -297t292.5 -121q207 0 355 205h153q-72 -154 -204 -239t-300 -85l-32 -82q31 14 59 15q63 0 104 -41t41 -107q0 -74 -48 -124 t-119 -50q-133 0 -162 135l82 11q14 -68 84 -68q35 0 57.5 25.5t22.5 64.5t-26 64.5t-63 25.5q-41 0 -75 -41l-56 31l66 145q-217 35 -349 179.5t-132 349.5z" />
<glyph unicode="&#xe8;" horiz-adv-x="1198" d="M70 508q0 219 154.5 375.5t373.5 156.5q141 0 264 -72.5t195 -197.5q63 -110 71 -309h-921q8 -150 122.5 -259.5t266.5 -109.5q115 0 217 68.5t141 171.5h144q-55 -158 -194.5 -257.5t-303.5 -99.5q-219 0 -374.5 156t-155.5 377zM209 578h780q-37 158 -142.5 252 t-248.5 94t-252.5 -97t-136.5 -249zM340 1409l74 86l319 -270l-71 -82z" />
<glyph unicode="&#xe9;" horiz-adv-x="1198" d="M70 508q0 219 154.5 375.5t373.5 156.5q141 0 264 -72.5t195 -197.5q63 -110 71 -309h-921q8 -150 122.5 -259.5t266.5 -109.5q115 0 217 68.5t141 171.5h144q-55 -158 -194.5 -257.5t-303.5 -99.5q-219 0 -374.5 156t-155.5 377zM209 578h780q-37 158 -142.5 252 t-248.5 94t-252.5 -97t-136.5 -249zM471 1225l320 270l73 -86l-321 -266z" />
<glyph unicode="&#xea;" horiz-adv-x="1198" d="M70 508q0 219 154.5 375.5t373.5 156.5q141 0 264 -72.5t195 -197.5q63 -110 71 -309h-921q8 -150 122.5 -259.5t266.5 -109.5q115 0 217 68.5t141 171.5h144q-55 -158 -194.5 -257.5t-303.5 -99.5q-219 0 -374.5 156t-155.5 377zM209 578h780q-37 158 -142.5 252 t-248.5 94t-252.5 -97t-136.5 -249zM297 1167l244 252h123l239 -252h-155l-146 156l-145 -156h-160z" />
<glyph unicode="&#xeb;" horiz-adv-x="1198" d="M70 508q0 219 154.5 375.5t373.5 156.5q141 0 264 -72.5t195 -197.5q63 -110 71 -309h-921q8 -150 122.5 -259.5t266.5 -109.5q115 0 217 68.5t141 171.5h144q-55 -158 -194.5 -257.5t-303.5 -99.5q-219 0 -374.5 156t-155.5 377zM209 578h780q-37 158 -142.5 252 t-248.5 94t-252.5 -97t-136.5 -249zM406 1174v233h131v-233h-131zM672 1174v233h131v-233h-131z" />
<glyph unicode="&#xec;" horiz-adv-x="399" d="M-51 1409l74 86l305 -270l-72 -82zM135 0v1016h131v-1016h-131z" />
<glyph unicode="&#xed;" horiz-adv-x="399" d="M72 1225l305 270l74 -86l-308 -266zM135 0v1016h131v-1016h-131z" />
<glyph unicode="&#xee;" horiz-adv-x="399" d="M-82 1167l223 252h123l217 -252h-155l-123 156l-125 -156h-160zM135 0v1016h131v-1016h-131z" />
<glyph unicode="&#xef;" horiz-adv-x="399" d="M20 1174v233h123v-233h-123zM133 0v1016h131v-1016h-131zM254 1174v233h123v-233h-123z" />
<glyph unicode="&#xf0;" horiz-adv-x="1200" d="M70 506q0 217 155.5 375.5t368.5 158.5q59 0 137 -20l-127 154l-137 -82l-55 82l127 79l-109 117l88 72l121 -129l143 84l56 -86l-125 -76l145 -184q61 -74 164 -213q109 -174 108 -330q0 -217 -157.5 -375t-370.5 -158q-221 0 -376.5 156t-155.5 375zM201 510 q0 -176 116.5 -297t284.5 -121t282.5 122t114.5 300q0 168 -112 283q-123 127 -285 127q-164 0 -282.5 -122t-118.5 -292z" />
<glyph unicode="&#xf1;" horiz-adv-x="1155" d="M135 0v1016h131v-131q141 156 314 155q227 0 354 -166q94 -123 94 -317v-557h-131v557q0 160 -74 250q-96 117 -243 117q-156 0 -250 -129q-55 -76 -56 -238v-557h-139zM293 1274q74 98 180 98q66 0 166 -51q49 -25 82 -25q53 0 104 72l66 -80q-70 -100 -182 -100 q-51 0 -172 57q-39 18 -66 19q-57 0 -113 -70z" />
<glyph unicode="&#xf2;" horiz-adv-x="1200" d="M70 514q0 213 157.5 369.5t372.5 156.5q217 0 373.5 -157.5t156.5 -374.5t-156.5 -375t-373.5 -158q-221 0 -375.5 157t-154.5 382zM201 510q0 -176 116.5 -297t284.5 -121t282.5 122t114.5 300q0 168 -112 283q-123 127 -285 127q-164 0 -282.5 -122t-118.5 -292z M342 1409l74 86l319 -270l-71 -82z" />
<glyph unicode="&#xf3;" horiz-adv-x="1200" d="M70 514q0 213 157.5 369.5t372.5 156.5q217 0 373.5 -157.5t156.5 -374.5t-156.5 -375t-373.5 -158q-221 0 -375.5 157t-154.5 382zM201 510q0 -176 116.5 -297t284.5 -121t282.5 122t114.5 300q0 168 -112 283q-123 127 -285 127q-164 0 -282.5 -122t-118.5 -292z M473 1225l320 270l73 -86l-321 -266z" />
<glyph unicode="&#xf4;" horiz-adv-x="1200" d="M70 514q0 213 157.5 369.5t372.5 156.5q217 0 373.5 -157.5t156.5 -374.5t-156.5 -375t-373.5 -158q-221 0 -375.5 157t-154.5 382zM201 510q0 -176 116.5 -297t284.5 -121t282.5 122t114.5 300q0 168 -112 283q-123 127 -285 127q-164 0 -282.5 -122t-118.5 -292z M297 1167l244 252h123l239 -252h-155l-146 156l-145 -156h-160z" />
<glyph unicode="&#xf5;" horiz-adv-x="1200" d="M70 514q0 213 157.5 369.5t372.5 156.5q217 0 373.5 -157.5t156.5 -374.5t-156.5 -375t-373.5 -158q-221 0 -375.5 157t-154.5 382zM201 510q0 -176 116.5 -297t284.5 -121t282.5 122t114.5 300q0 168 -112 283q-123 127 -285 127q-164 0 -282.5 -122t-118.5 -292z M315 1274q74 98 181 98q66 0 166 -51q49 -25 81 -25q54 0 105 72l65 -80q-70 -100 -182 -100q-51 0 -172 57q-39 18 -65 19q-57 0 -113 -70z" />
<glyph unicode="&#xf6;" horiz-adv-x="1200" d="M70 514q0 213 157.5 369.5t372.5 156.5q217 0 373.5 -157.5t156.5 -374.5t-156.5 -375t-373.5 -158q-221 0 -375.5 157t-154.5 382zM201 510q0 -176 116.5 -297t284.5 -121t282.5 122t114.5 300q0 168 -112 283q-123 127 -285 127q-164 0 -282.5 -122t-118.5 -292z M401 1174v233h131v-233h-131zM668 1174v233h131v-233h-131z" />
<glyph unicode="&#xf7;" d="M90 625l2 123h850v-123h-852zM453 276l2 193h123v-193h-125zM455 905v193h123v-193h-123z" />
<glyph unicode="&#xf8;" horiz-adv-x="1200" d="M70 508q0 217 156.5 374.5t373.5 157.5q141 0 279 -79l122 165l86 -67l-122 -166q166 -184 165 -383q0 -217 -156.5 -376t-371.5 -159q-164 0 -280 82l-115 -153l-84 69l113 148q-166 172 -166 387zM201 504q-1 -162 110 -285l492 643q-80 61 -203 62q-164 0 -281.5 -124 t-117.5 -296zM395 152q90 -59 207 -60q168 0 282.5 122t114.5 298q1 172 -110 283z" />
<glyph unicode="&#xf9;" horiz-adv-x="1150" d="M127 457v559h131v-559q0 -150 57 -234q90 -131 256 -131q160 0 252 129q61 86 62 236v559h131v-1016h-123v156q-109 -180 -342 -181q-219 0 -340 162q-84 113 -84 320zM324 1409l73 86l320 -270l-72 -82z" />
<glyph unicode="&#xfa;" horiz-adv-x="1150" d="M127 457v559h131v-559q0 -150 57 -234q90 -131 256 -131q160 0 252 129q61 86 62 236v559h131v-1016h-123v156q-109 -180 -342 -181q-219 0 -340 162q-84 113 -84 320zM446 1225l320 270l74 -86l-322 -266z" />
<glyph unicode="&#xfb;" horiz-adv-x="1150" d="M127 457v559h131v-559q0 -150 57 -234q90 -131 256 -131q160 0 252 129q61 86 62 236v559h131v-1016h-123v156q-109 -180 -342 -181q-219 0 -340 162q-84 113 -84 320zM272 1167l244 252h123l240 -252h-156l-145 156l-146 -156h-160z" />
<glyph unicode="&#xfc;" horiz-adv-x="1150" d="M127 457v559h131v-559q0 -150 57 -234q90 -131 256 -131q160 0 252 129q61 86 62 236v559h131v-1016h-123v156q-109 -180 -342 -181q-219 0 -340 162q-84 113 -84 320zM373 1174v233h131v-233h-131zM639 1174v233h131v-233h-131z" />
<glyph unicode="&#xfd;" horiz-adv-x="962" d="M0 1016h150l323 -809l344 809h146l-588 -1372h-146l166 389zM375 1225l319 270l74 -86l-322 -266z" />
<glyph unicode="&#xfe;" horiz-adv-x="1280" d="M135 -356v1728h131v-530q59 92 169 145t237 53q221 0 379.5 -157.5t158.5 -378.5q0 -219 -159.5 -374t-386.5 -155q-256 0 -392 199v-530h-137zM264 514q0 -193 127 -311q119 -111 281 -111q170 0 288.5 120t118.5 292q0 176 -118.5 298t-290.5 122q-170 0 -288 -119 t-118 -291z" />
<glyph unicode="&#xff;" horiz-adv-x="962" d="M0 1016h150l323 -809l344 809h146l-588 -1372h-146l166 389zM283 1174v233h131v-233h-131zM549 1174v233h131v-233h-131z" />
<glyph unicode="&#x152;" horiz-adv-x="2203" d="M72 688q0 297 208.5 503t510.5 206q188 0 354 -83t237 -214v272h727v-123h-589v-495h569v-123h-569v-508h589v-123h-727v279q-51 -90 -141 -156q-203 -147 -434 -148q-313 0 -524 205t-211 508zM209 696q0 -252 168 -425t414 -173q248 0 420.5 173t172.5 419 q0 242 -171.5 413t-415.5 171t-416 -168t-172 -410z" />
<glyph unicode="&#x153;" horiz-adv-x="2105" d="M70 506q0 217 156.5 375.5t369.5 158.5q283 0 467 -286q59 131 182 208.5t266 77.5q221 0 373 -158.5t152 -389.5v-37h-908q8 -154 122 -258.5t268 -104.5q113 0 208 63.5t144 172.5h139q-45 -150 -185.5 -251.5t-305.5 -101.5q-143 0 -277.5 81t-179.5 196 q-72 -129 -197 -203t-268 -74q-213 0 -369.5 158t-156.5 373zM201 508q0 -170 117.5 -293t281.5 -123t280.5 119t116.5 285q0 174 -117.5 301t-281.5 127q-162 0 -279.5 -124t-117.5 -292zM1130 571h768q-18 145 -130.5 249t-251.5 104q-174 0 -297 -152q-62 -76 -89 -201z " />
<glyph unicode="&#x178;" horiz-adv-x="1101" d="M2 1372h152l393 -770l401 770h150l-482 -913v-459h-137v459zM344 1509v234h137v-234h-137zM618 1509v234h138v-234h-138z" />
<glyph unicode="&#x2c6;" d="M213 1167l244 252h123l239 -252h-155l-146 156l-145 -156h-160z" />
<glyph unicode="&#x2dc;" d="M215 1274q74 98 180 98q66 0 166 -51q49 -25 82 -25q54 0 105 72l65 -80q-70 -100 -182 -100q-51 0 -172 57q-39 18 -66 19q-57 0 -112 -70z" />
<glyph unicode="&#x2000;" horiz-adv-x="934" />
<glyph unicode="&#x2001;" horiz-adv-x="1868" />
<glyph unicode="&#x2002;" horiz-adv-x="934" />
<glyph unicode="&#x2003;" horiz-adv-x="1868" />
<glyph unicode="&#x2004;" horiz-adv-x="622" />
<glyph unicode="&#x2005;" horiz-adv-x="467" />
<glyph unicode="&#x2006;" horiz-adv-x="311" />
<glyph unicode="&#x2007;" horiz-adv-x="311" />
<glyph unicode="&#x2008;" horiz-adv-x="233" />
<glyph unicode="&#x2009;" horiz-adv-x="373" />
<glyph unicode="&#x200a;" horiz-adv-x="103" />
<glyph unicode="&#x2010;" horiz-adv-x="479" d="M0 459v123h479v-123h-479z" />
<glyph unicode="&#x2011;" horiz-adv-x="479" d="M0 459v123h479v-123h-479z" />
<glyph unicode="&#x2012;" horiz-adv-x="479" d="M0 459v123h479v-123h-479z" />
<glyph unicode="&#x2013;" d="M96 459v123h838v-123h-838z" />
<glyph unicode="&#x2014;" horiz-adv-x="1503" d="M0 459v123h1503v-123h-1503z" />
<glyph unicode="&#x2018;" horiz-adv-x="464" d="M82 1372h137l164 -356h-137z" />
<glyph unicode="&#x2019;" horiz-adv-x="464" d="M82 1016l164 356h137l-164 -356h-137z" />
<glyph unicode="&#x201a;" horiz-adv-x="659" d="M166 -125l164 358h137l-164 -358h-137z" />
<glyph unicode="&#x201c;" horiz-adv-x="739" d="M82 1016l164 356h137l-164 -356h-137zM356 1016l164 356h137l-163 -356h-138z" />
<glyph unicode="&#x201d;" horiz-adv-x="739" d="M82 1016l164 356h137l-164 -356h-137zM356 1016l164 356h137l-163 -356h-138z" />
<glyph unicode="&#x201e;" horiz-adv-x="739" d="M82 -125l164 358h137l-164 -358h-137zM356 -125l164 358h137l-163 -358h-138z" />
<glyph unicode="&#x2022;" horiz-adv-x="1372" d="M403 696q0 119 85 203t206 84q115 0 198 -85t83 -202t-84 -200.5t-201 -83.5q-119 0 -203 84t-84 200z" />
<glyph unicode="&#x2026;" horiz-adv-x="1218" d="M135 0v233h137v-233h-137zM541 0v233h137v-233h-137zM948 0v233h137v-233h-137z" />
<glyph unicode="&#x202f;" horiz-adv-x="373" />
<glyph unicode="&#x2039;" horiz-adv-x="512" d="M90 522l211 369l109 -57l-174 -312l174 -313l-109 -59z" />
<glyph unicode="&#x203a;" horiz-adv-x="512" d="M102 209l174 313l-174 312l109 57l211 -369l-211 -372z" />
<glyph unicode="&#x205f;" horiz-adv-x="467" />
<glyph unicode="&#x20ac;" horiz-adv-x="1486" d="M72 506l57 135h98q-2 25 -2 43q0 20 2 47h-155l57 135h119q63 240 253.5 385.5t438.5 145.5q264 0 475 -178l-53 -127q-176 182 -422 182q-182 0 -333.5 -112.5t-213.5 -295.5h873l-58 -135h-843q-2 -25 -3 -45q0 -6 3 -45h804l-57 -135h-719q59 -178 213 -293t334 -115 q250 0 428 195v-174q-203 -143 -424 -144q-248 0 -440.5 146.5t-255.5 384.5h-176z" />
<glyph unicode="&#x2122;" horiz-adv-x="1607" d="M41 1290v82h481v-82h-190v-700h-99v700h-192zM594 590v782h141l299 -645l301 645h142v-782h-99v659l-303 -659h-82l-301 659v-659h-98z" />
<glyph unicode="&#xe000;" horiz-adv-x="1013" d="M0 0v1014h1014v-1014h-1014z" />
<glyph unicode="&#xfb03;" horiz-adv-x="1511" d="M18 899v117h158q10 182 90 258q96 92 279 92h20v-125q-8 2 -20 2q-129 0 -193 -69q-45 -49 -45 -158h404q10 182 90 258q96 92 280 92h21v-125q-8 2 -21 2q-129 0 -194 -69q-45 -47 -45 -158h260v-117h-260v-899h-131v899h-404v-899h-131v899h-158zM1247 0v1016h131 v-1016h-131zM1247 1139v233h131v-233h-131z" />
<glyph unicode="&#xfb04;" horiz-adv-x="1511" d="M18 899v117h158q10 182 90 258q96 92 279 92h20v-125q-8 2 -20 2q-129 0 -193 -69q-45 -49 -45 -158h404q10 182 90 258q96 92 280 92h21v-125q-8 2 -21 2q-129 0 -194 -69q-45 -47 -45 -158h260v-117h-260v-899h-131v899h-404v-899h-131v899h-158zM1247 0v1372h131 v-1372h-131z" />
</font>
</defs>
</svg>
